<svg xmlns="http://www.w3.org/2000/svg" id="diagram" width="310" height="210">
  <defs>
    <clipPath id="clipPath-0">
      <rect x="5.0" y="5.0" width="300.0" height="200.0"/>
    </clipPath>
    <clipPath id="clipPath-1">
      <rect x="5.0" y="5.0" width="300.0" height="200.0"/>
    </clipPath>
  </defs>
  <g id="g-0">
    <g id="g-1-row=0">
      <path id="path-0-row=0-tile=0" d="M 5.0 171.7 L 32.1 171.7 L 32.1 155.0 L 5.0 155.0 Z" stroke="black" stroke-width="2" fill="blue"/>
      <path id="path-1-row=0-tile=1" d="M 32.1 171.7 L 48.8 171.7 L 48.8 155.0 L 32.1 155.0 Z" stroke="black" stroke-width="2" fill="red"/>
      <path id="path-2-row=0-tile=2" d="M 48.8 171.7 L 75.8 171.7 L 75.8 155.0 L 48.8 155.0 Z" stroke="black" stroke-width="2" fill="blue"/>
      <path id="path-3-row=0-tile=3" d="M 75.8 171.7 L 102.9 171.7 L 102.9 155.0 L 75.8 155.0 Z" stroke="black" stroke-width="2" fill="blue"/>
      <path id="path-4-row=0-tile=4" d="M 102.9 171.7 L 119.6 171.7 L 119.6 155.0 L 102.9 155.0 Z" stroke="black" stroke-width="2" fill="red"/>
      <path id="path-5-row=0-tile=5" d="M 119.6 171.7 L 146.6 171.7 L 146.6 155.0 L 119.6 155.0 Z" stroke="black" stroke-width="2" fill="blue"/>
      <path id="path-6-row=0-tile=6" d="M 146.6 171.7 L 163.4 171.7 L 163.4 155.0 L 146.6 155.0 Z" stroke="black" stroke-width="2" fill="red"/>
      <path id="path-7-row=0-tile=7" d="M 163.4 171.7 L 190.4 171.7 L 190.4 155.0 L 163.4 155.0 Z" stroke="black" stroke-width="2" fill="blue"/>
      <path id="path-8-row=0-tile=8" d="M 190.4 171.7 L 217.5 171.7 L 217.5 155.0 L 190.4 155.0 Z" stroke="black" stroke-width="2" fill="blue"/>
      <path id="path-9-row=0-tile=9" d="M 217.5 171.7 L 234.2 171.7 L 234.2 155.0 L 217.5 155.0 Z" stroke="black" stroke-width="2" fill="red"/>
      <path id="path-10-row=0-tile=10" d="M 234.2 171.7 L 261.2 171.7 L 261.2 155.0 L 234.2 155.0 Z" stroke="black" stroke-width="2" fill="blue"/>
      <path id="path-11-row=0-tile=11" d="M 261.2 171.7 L 288.3 171.7 L 288.3 155.0 L 261.2 155.0 Z" stroke="black" stroke-width="2" fill="blue"/>
      <path id="path-12-row=0-tile=12" d="M 288.3 171.7 L 305.0 171.7 L 305.0 155.0 L 288.3 155.0 Z" stroke="black" stroke-width="2" fill="red"/>
    </g>
    <g id="g-2-row=1">
      <path id="path-13-row=1-tile=0" d="M 5.0 105.0 L 48.8 105.0 L 48.8 88.3 L 5.0 88.3 Z" stroke="black" stroke-width="2" fill="blue"/>
      <path id="path-14-row=1-tile=1" d="M 48.8 105.0 L 75.8 105.0 L 75.8 88.3 L 48.8 88.3 Z" stroke="black" stroke-width="2" fill="red"/>
      <path id="path-15-row=1-tile=2" d="M 75.8 105.0 L 119.6 105.0 L 119.6 88.3 L 75.8 88.3 Z" stroke="black" stroke-width="2" fill="blue"/>
      <path id="path-16-row=1-tile=3" d="M 119.6 105.0 L 163.4 105.0 L 163.4 88.3 L 119.6 88.3 Z" stroke="black" stroke-width="2" fill="blue"/>
      <path id="path-17-row=1-tile=4" d="M 163.4 105.0 L 190.4 105.0 L 190.4 88.3 L 163.4 88.3 Z" stroke="black" stroke-width="2" fill="red"/>
      <path id="path-18-row=1-tile=5" d="M 190.4 105.0 L 234.2 105.0 L 234.2 88.3 L 190.4 88.3 Z" stroke="black" stroke-width="2" fill="blue"/>
      <path id="path-19-row=1-tile=6" d="M 234.2 105.0 L 261.2 105.0 L 261.2 88.3 L 234.2 88.3 Z" stroke="black" stroke-width="2" fill="red"/>
      <path id="path-20-row=1-tile=7" d="M 261.2 105.0 L 305.0 105.0 L 305.0 88.3 L 261.2 88.3 Z" stroke="black" stroke-width="2" fill="blue"/>
    </g>
    <g id="g-3-row=2">
      <path id="path-21-row=2-tile=0" d="M 5.0 38.3 L 75.8 38.3 L 75.8 21.7 L 5.0 21.7 Z" stroke="black" stroke-width="2" fill="blue"/>
      <path id="path-22-row=2-tile=1" d="M 75.8 38.3 L 119.6 38.3 L 119.6 21.7 L 75.8 21.7 Z" stroke="black" stroke-width="2" fill="red"/>
      <path id="path-23-row=2-tile=2" d="M 119.6 38.3 L 190.4 38.3 L 190.4 21.7 L 119.6 21.7 Z" stroke="black" stroke-width="2" fill="blue"/>
      <path id="path-24-row=2-tile=3" d="M 190.4 38.3 L 261.2 38.3 L 261.2 21.7 L 190.4 21.7 Z" stroke="black" stroke-width="2" fill="blue"/>
      <path id="path-25-row=2-tile=4" d="M 261.2 38.3 L 305.0 38.3 L 305.0 21.7 L 261.2 21.7 Z" stroke="black" stroke-width="2" fill="red"/>
    </g>
  </g>
</svg>
