<svg xmlns="http://www.w3.org/2000/svg" xmlns:xlink="http://www.w3.org/1999/xlink" id="diagram" width="828.0" height="792">
  <defs>
    <clipPath id="clipPath-0">
      <rect x="90.0" y="72.0" width="648.0" height="648.0"/>
    </clipPath>
    <clipPath id="clipPath-1">
      <rect x="90.0" y="72.0" width="648.0" height="648.0"/>
    </clipPath>
    <path id="lynx-outline" d="M 204.4 241.0 L 208.2 261.4 L 212.0 282.2 L 215.8 302.4 L 219.7 321.3 L 223.5 338.4 L 227.3 353.2 L 231.2 365.6 L 235.0 375.4 L 238.8 382.6 L 242.7 387.6 L 246.5 390.5 L 250.3 391.3 L 254.2 390.1 L 258.0 386.8 L 261.8 381.6 L 265.6 374.6 L 269.5 365.9 L 273.3 355.5 L 277.1 343.5 L 281.0 330.0 L 284.8 315.1 L 288.6 299.0 L 292.5 282.1 L 296.3 264.7 L 300.1 247.4 L 304.0 230.5 L 307.8 214.8 L 311.6 201.4 L 315.4 191.1 L 319.3 184.7 L 323.1 182.6 L 326.9 185.0 L 330.8 192.1 L 334.6 203.4 L 338.4 218.5 L 342.3 236.3 L 346.1 256.1 L 349.9 276.9 L 353.8 297.6 L 357.6 317.3 L 361.4 334.9 L 365.3 350.2 L 369.1 363.1 L 372.9 373.5 L 376.7 381.3 L 380.6 386.7 L 384.4 389.8 L 388.2 391.0 L 392.1 390.2 L 395.9 387.3 L 399.7 382.6 L 403.6 376.0 L 407.4 367.6 L 411.2 357.5 L 415.1 345.8 L 418.9 332.7 L 422.7 318.1 L 426.5 302.3 L 430.4 285.6 L 434.2 268.3 L 438.0 251.0 L 441.9 234.2 L 445.7 218.5 L 449.5 204.5 L 453.4 193.4 L 457.2 186.0 L 461.0 182.7 L 464.9 184.0 L 468.7 189.9 L 472.5 200.3 L 476.3 214.6 L 480.2 231.9 L 484.0 251.3 L 487.8 271.9 L 491.7 292.7 L 495.5 312.6 L 499.3 330.6 L 503.2 346.5 L 507.0 360.0 L 510.8 371.0 L 514.7 379.4 L 518.5 385.3 L 522.3 389.0 L 526.2 390.8 L 530.0 390.4 L 533.8 388.1 L 537.6 383.8 L 541.5 377.7 L 545.3 369.7 L 549.1 360.1 L 553.0 348.8 L 556.8 336.0 L 560.6 321.8 L 564.5 306.3 L 568.3 289.8 L 572.1 272.7 L 576.0 255.3 L 579.8 238.4 L 583.6 222.2 L 587.4 207.7 L 591.3 195.8 L 595.1 187.4 L 598.9 183.3 L 602.8 183.7 L 606.6 188.8 L 610.4 198.3 L 614.3 211.7 L 618.1 228.2 L 621.9 247.0 L 625.8 267.4 L 629.6 288.4 L 633.4 309.1 L 637.2 328.1 L 641.1 344.5 L 644.9 358.5 L 648.7 370.1 L 652.6 379.0 L 656.4 385.4 L 660.2 389.4 L 664.1 391.2 L 667.9 391.2 L 671.7 389.1 L 675.6 385.1 L 679.4 379.2 L 683.2 371.5 L 687.0 362.1 L 690.9 350.9 L 694.7 338.3 L 698.5 324.2 L 702.4 308.9 L 706.2 292.4 L 710.0 275.3 L 713.9 257.8 L 717.7 240.6 L 721.5 224.3 L 725.4 209.6 L 729.2 197.1 L 733.0 187.9 L 736.9 182.8 L 740.7 182.1 L 744.5 186.2 L 748.3 194.9 L 752.2 207.7 L 756.0 224.0 L 759.8 242.7 L 763.7 263.2 L 767.5 284.3 L 771.3 305.1 L 775.2 324.4 L 779.0 341.3 L 782.8 355.8 L 786.7 367.9 L 790.5 377.4 L 794.3 384.4 L 798.1 388.9 L 802.0 391.3 L 805.8 391.7 L 809.6 390.1 L 813.5 386.6 L 817.3 381.1 L 821.1 373.7 L 825.0 364.7 L 828.8 353.9 L 832.6 341.6 L 836.5 327.8 L 840.3 312.7 L 844.1 296.4 L 847.9 279.2 L 851.8 261.7 L 855.6 244.4 L 859.4 227.7 L 863.3 212.3 L 867.1 199.2 L 870.9 189.2 L 874.8 183.1 L 878.6 181.5 L 882.4 184.4 L 886.3 192.1 L 890.1 204.2 L 893.9 219.8 L 897.7 238.2 L 901.6 258.4 L 905.4 279.5 L 909.2 300.3 L 913.1 319.8 L 916.9 337.1 L 920.7 352.2 L 924.6 364.9 L 928.4 375.0 L 932.2 382.6 L 936.1 387.7 L 939.9 390.7 L 943.7 391.7 L 947.6 390.6 L 951.4 387.5 L 955.2 382.5 L 959.0 375.7 L 962.9 367.0 L 966.7 356.7" type="parametric curve" clip-path="url(#clipPath-1)"/>
    <path id="snowshoe-outline" d="M 204.4 353.7 L 208.2 347.9 L 212.0 344.6 L 215.8 343.9 L 219.7 345.8 L 223.5 350.0 L 227.3 356.0 L 231.2 363.7 L 235.0 372.5 L 238.8 382.1 L 242.7 391.9 L 246.5 401.7 L 250.3 411.3 L 254.2 420.5 L 258.0 429.0 L 261.8 436.9 L 265.6 443.9 L 269.5 450.0 L 273.3 455.2 L 277.1 459.4 L 281.0 462.5 L 284.8 464.4 L 288.6 465.1 L 292.5 464.6 L 296.3 462.7 L 300.1 459.5 L 304.0 454.9 L 307.8 449.0 L 311.6 441.5 L 315.4 432.4 L 319.3 422.1 L 323.1 410.6 L 326.9 398.6 L 330.8 386.6 L 334.6 375.3 L 338.4 365.0 L 342.3 356.4 L 346.1 350.0 L 349.9 345.9 L 353.8 344.4 L 357.6 345.5 L 361.4 349.1 L 365.3 354.8 L 369.1 362.1 L 372.9 370.7 L 376.7 380.1 L 380.6 389.9 L 384.4 399.8 L 388.2 409.4 L 392.1 418.6 L 395.9 427.3 L 399.7 435.3 L 403.6 442.5 L 407.4 448.8 L 411.2 454.1 L 415.1 458.5 L 418.9 461.8 L 422.7 464.0 L 426.5 464.9 L 430.4 464.6 L 434.2 463.0 L 438.0 460.1 L 441.9 455.7 L 445.7 450.0 L 449.5 442.8 L 453.4 434.2 L 457.2 424.2 L 461.0 413.1 L 464.9 401.4 L 468.7 389.4 L 472.5 377.9 L 476.3 367.3 L 480.2 358.3 L 484.0 351.3 L 487.8 346.6 L 491.7 344.5 L 495.5 345.1 L 499.3 348.1 L 503.2 353.4 L 507.0 360.3 L 510.8 368.5 L 514.7 377.7 L 518.5 387.5 L 522.3 397.4 L 526.2 407.0 L 530.0 416.3 L 533.8 425.2 L 537.6 433.3 L 541.5 440.7 L 545.3 447.2 L 549.1 452.8 L 553.0 457.4 L 556.8 461.0 L 560.6 463.4 L 564.5 464.7 L 568.3 464.7 L 572.1 463.5 L 576.0 460.9 L 579.8 456.9 L 583.6 451.5 L 587.4 444.8 L 591.3 436.5 L 595.1 426.9 L 598.9 416.0 L 602.8 404.2 L 606.6 392.1 L 610.4 380.4 L 614.3 369.6 L 618.1 360.4 L 621.9 352.9 L 625.8 347.7 L 629.6 344.9 L 633.4 344.7 L 637.2 347.0 L 641.1 352.0 L 644.9 358.7 L 648.7 366.8 L 652.6 376.0 L 656.4 385.7 L 660.2 395.7 L 664.1 405.6 L 667.9 415.0 L 671.7 424.0 L 675.6 432.3 L 679.4 439.9 L 683.2 446.6 L 687.0 452.3 L 690.9 457.1 L 694.7 460.8 L 698.5 463.5 L 702.4 465.0 L 706.2 465.2 L 710.0 464.1 L 713.9 461.7 L 717.7 457.9 L 721.5 452.7 L 725.4 446.0 L 729.2 437.9 L 733.0 428.5 L 736.9 417.8 L 740.7 406.3 L 744.5 394.3 L 748.3 382.4 L 752.2 371.2 L 756.0 361.5 L 759.8 353.5 L 763.7 347.8 L 767.5 344.6 L 771.3 343.9 L 775.2 345.9 L 779.0 350.4 L 782.8 356.9 L 786.7 364.7 L 790.5 373.7 L 794.3 383.4 L 798.1 393.4 L 802.0 403.3 L 805.8 412.9 L 809.6 422.0 L 813.5 430.5 L 817.3 438.3 L 821.1 445.2 L 825.0 451.2 L 828.8 456.2 L 832.6 460.3 L 836.5 463.2 L 840.3 464.9 L 844.1 465.5 L 847.9 464.7 L 851.8 462.6 L 855.6 459.1 L 859.4 454.2 L 863.3 447.9 L 867.1 440.1 L 870.9 430.9 L 874.8 420.4 L 878.6 409.0 L 882.4 396.9 L 886.3 384.9 L 890.1 373.5 L 893.9 363.3 L 897.7 354.9 L 901.6 348.6 L 905.4 344.9 L 909.2 343.7 L 913.1 345.3 L 916.9 349.2 L 920.7 355.2 L 924.6 362.7 L 928.4 371.5 L 932.2 381.0 L 936.1 391.0 L 939.9 400.8 L 943.7 410.5 L 947.6 419.7 L 951.4 428.4 L 955.2 436.3 L 959.0 443.5 L 962.9 449.7 L 966.7 455.0" type="parametric curve" clip-path="url(#clipPath-1)"/>
  </defs>
  <g id="grid-axes">
    <g id="grid" stroke="#ccc" stroke-width="1">
      <line id="line-0" x1="128.1" y1="720.0" x2="128.1" y2="72.0" type="vertical grid"/>
      <line id="line-1" x1="204.4" y1="720.0" x2="204.4" y2="72.0" type="vertical grid"/>
      <line id="line-2" x1="280.6" y1="720.0" x2="280.6" y2="72.0" type="vertical grid"/>
      <line id="line-3" x1="356.8" y1="720.0" x2="356.8" y2="72.0" type="vertical grid"/>
      <line id="line-4" x1="433.1" y1="720.0" x2="433.1" y2="72.0" type="vertical grid"/>
      <line id="line-5" x1="509.3" y1="720.0" x2="509.3" y2="72.0" type="vertical grid"/>
      <line id="line-6" x1="585.5" y1="720.0" x2="585.5" y2="72.0" type="vertical grid"/>
      <line id="line-7" x1="661.8" y1="720.0" x2="661.8" y2="72.0" type="vertical grid"/>
      <line id="line-8" x1="738.0" y1="720.0" x2="738.0" y2="72.0" type="vertical grid"/>
      <line id="line-9" x1="90.0" y1="691.8" x2="738.0" y2="691.8" type="horizontal grid"/>
      <line id="line-10" x1="90.0" y1="635.5" x2="738.0" y2="635.5" type="horizontal grid"/>
      <line id="line-11" x1="90.0" y1="579.1" x2="738.0" y2="579.1" type="horizontal grid"/>
      <line id="line-12" x1="90.0" y1="522.8" x2="738.0" y2="522.8" type="horizontal grid"/>
      <line id="line-13" x1="90.0" y1="466.4" x2="738.0" y2="466.4" type="horizontal grid"/>
      <line id="line-14" x1="90.0" y1="410.1" x2="738.0" y2="410.1" type="horizontal grid"/>
      <line id="line-15" x1="90.0" y1="353.7" x2="738.0" y2="353.7" type="horizontal grid"/>
      <line id="line-16" x1="90.0" y1="297.4" x2="738.0" y2="297.4" type="horizontal grid"/>
      <line id="line-17" x1="90.0" y1="241.0" x2="738.0" y2="241.0" type="horizontal grid"/>
      <line id="line-18" x1="90.0" y1="184.7" x2="738.0" y2="184.7" type="horizontal grid"/>
      <line id="line-19" x1="90.0" y1="128.3" x2="738.0" y2="128.3" type="horizontal grid"/>
      <line id="line-20" x1="90.0" y1="72.0" x2="738.0" y2="72.0" type="horizontal grid"/>
    </g>
    <g id="axes" stroke="black" stroke-width="2">
      <line id="line-21" x1="90.0" y1="635.5" x2="738.0" y2="635.5" type="horizontal axis" stroke-width="2"/>
      <line id="line-22" x1="204.4" y1="720.0" x2="204.4" y2="72.0" type="vertical axis" stroke-width="2"/>
      <g type="horizontal ticks" id="g-0">
        <line id="line-23" x1="356.8" y1="653.5" x2="356.8" y2="635.5" type="tick on horizontal axis"/>
        <line id="line-24" x1="509.3" y1="653.5" x2="509.3" y2="635.5" type="tick on horizontal axis"/>
        <line id="line-25" x1="661.8" y1="653.5" x2="661.8" y2="635.5" type="tick on horizontal axis"/>
      </g>
      <g type="vertical ticks" id="g-1">
        <line id="line-26" x1="186.4" y1="522.8" x2="204.4" y2="522.8" type="tick on vertical axis"/>
        <line id="line-27" x1="186.4" y1="410.1" x2="204.4" y2="410.1" type="tick on vertical axis"/>
        <line id="line-28" x1="186.4" y1="297.4" x2="204.4" y2="297.4" type="tick on vertical axis"/>
        <line id="line-29" x1="186.4" y1="184.7" x2="204.4" y2="184.7" type="tick on vertical axis"/>
      </g>
    </g>
  </g>
  <use fill="none" stroke-width="20" stroke="white" xlink:href="#lynx-outline"/>
  <use id="lynx" fill="none" stroke-width="2" stroke="black" stroke-dasharray="none" xlink:href="#lynx-outline"/>
  <use fill="none" stroke-width="20" stroke="white" xlink:href="#snowshoe-outline"/>
  <use id="snowshoe" fill="none" stroke-width="2" stroke="black" stroke-dasharray="9 9" xlink:href="#snowshoe-outline"/>
  <g transform="translate(550.8,82.8)">
    <rect x="0" y="0" width="178.2" height="72.0" stroke="black" fill="white"/>
    <g id="legend-label-0" transform="translate(79.2,10.8)">
      <g id="legend-label-0" transform="translate(0.0,18.0)">
        <text x="0.0" y="0.0" font-family="Braille29" font-size="29px">⠠⠋⠷⠞⠾</text>
      </g>
    </g>
    <line stroke="black" x1="55.8" y1="19.8" x2="10.8" y2="19.8" stroke-width="2"/>
    <g id="legend-label-1" transform="translate(79.2,43.2)">
      <g id="legend-label-1" transform="translate(0.0,18.0)">
        <text x="0.0" y="0.0" font-family="Braille29" font-size="29px">⠠⠓⠷⠞⠾</text>
      </g>
    </g>
    <line stroke="black" stroke-dasharray="9 9" x1="55.8" y1="52.2" x2="10.8" y2="52.2" stroke-width="2"/>
  </g>
  <g id="background-group">
    <rect id="label-0-background" x="333.0" y="675.0" width="54.0" height="36.0" stroke="none" fill="white"/>
    <rect id="label-1-background" x="484.2" y="675.0" width="54.0" height="36.0" stroke="none" fill="white"/>
    <rect id="label-2-background" x="639.0" y="675.0" width="54.0" height="36.0" stroke="none" fill="white"/>
    <rect id="label-3-background" x="102.6" y="505.8" width="54.0" height="36.0" stroke="none" fill="white"/>
    <rect id="label-4-background" x="102.6" y="390.6" width="54.0" height="36.0" stroke="none" fill="white"/>
    <rect id="label-5-background" x="102.6" y="279.0" width="54.0" height="36.0" stroke="none" fill="white"/>
    <rect id="label-6-background" x="102.6" y="167.4" width="54.0" height="36.0" stroke="none" fill="white"/>
    <rect id="label-7-background" x="700.2" y="595.8" width="36.0" height="36.0" stroke="none" fill="white"/>
  </g>
  <g id="braille-group">
    <g id="label-0" transform="translate(342.0,702.0)">
      <text x="0.0" y="0.0" font-family="Braille29" font-size="29px">⠆⠴</text>
    </g>
    <g id="label-1" transform="translate(493.2,702.0)">
      <text x="0.0" y="0.0" font-family="Braille29" font-size="29px">⠲⠴</text>
    </g>
    <g id="label-2" transform="translate(648.0,702.0)">
      <text x="0.0" y="0.0" font-family="Braille29" font-size="29px">⠖⠴</text>
    </g>
    <g id="label-3" transform="translate(111.6,532.8)">
      <text x="0.0" y="0.0" font-family="Braille29" font-size="29px">⠆⠴</text>
    </g>
    <g id="label-4" transform="translate(111.6,417.6)">
      <text x="0.0" y="0.0" font-family="Braille29" font-size="29px">⠲⠴</text>
    </g>
    <g id="label-5" transform="translate(111.6,306.0)">
      <text x="0.0" y="0.0" font-family="Braille29" font-size="29px">⠖⠴</text>
    </g>
    <g id="label-6" transform="translate(111.6,194.4)">
      <text x="0.0" y="0.0" font-family="Braille29" font-size="29px">⠦⠴</text>
    </g>
    <g id="label-7" transform="translate(709.2,622.8)">
      <text x="0.0" y="0.0" font-family="Braille29" font-size="29px">⠞</text>
    </g>
  </g>
</svg>
