<svg xmlns="http://www.w3.org/2000/svg" xmlns:xlink="http://www.w3.org/1999/xlink" id="diagram" width="828.0" height="792">
  <defs>
    <clipPath id="clipPath-0">
      <rect x="90.0" y="72.0" width="648.0" height="648.0"/>
    </clipPath>
    <clipPath id="clipPath-1">
      <rect x="90.0" y="72.0" width="648.0" height="648.0"/>
    </clipPath>
    <path id="rectangle-0-outline" d="M 90.0 720.0 L 738.0 720.0 L 738.0 72.0 L 90.0 72.0 Z" type="rectangle"/>
    <path id="graph-1-outline" d="M 90.0 410.0 L 96.5 411.6 L 103.0 413.2 L 109.4 414.8 L 115.9 416.4 L 122.4 417.9 L 128.9 419.3 L 135.4 420.6 L 141.8 421.8 L 148.3 422.9 L 154.8 423.8 L 161.3 424.6 L 167.8 425.3 L 174.2 425.7 L 180.7 426.0 L 187.2 426.0 L 193.7 425.8 L 200.2 425.5 L 206.6 424.8 L 213.1 424.0 L 219.6 422.8 L 226.1 421.5 L 232.6 419.8 L 239.0 417.9 L 245.5 415.7 L 252.0 413.3 L 258.5 410.6 L 265.0 407.7 L 271.4 404.5 L 277.9 401.0 L 284.4 397.4 L 290.9 393.5 L 297.4 389.5 L 303.8 385.2 L 310.3 380.8 L 316.8 376.3 L 323.3 371.7 L 329.8 367.0 L 336.2 362.3 L 342.7 357.5 L 349.2 352.8 L 355.7 348.1 L 362.2 343.5 L 368.6 339.1 L 375.1 334.8 L 381.6 330.7 L 388.1 326.9 L 394.6 323.4 L 401.0 320.2 L 407.5 317.4 L 414.0 315.0 L 420.5 313.1 L 427.0 311.7 L 433.4 310.8 L 439.9 310.5 L 446.4 310.8 L 452.9 311.7 L 459.4 313.3 L 465.8 315.6 L 472.3 318.6 L 478.8 322.3 L 485.3 326.8 L 491.8 332.0 L 498.2 338.0 L 504.7 344.7 L 511.2 352.2 L 517.7 360.4 L 524.2 369.3 L 530.6 378.9 L 537.1 389.2 L 543.6 400.0 L 550.1 411.5 L 556.6 423.4 L 563.0 435.8 L 569.5 448.6 L 576.0 461.7 L 582.5 475.0 L 589.0 488.5 L 595.4 502.0 L 601.9 515.5 L 608.4 528.9 L 614.9 542.1 L 621.4 554.9 L 627.8 567.2 L 634.3 579.0 L 640.8 590.1 L 647.3 600.4 L 653.8 609.7 L 660.2 618.0 L 666.7 625.1 L 673.2 631.0 L 679.7 635.4 L 686.2 638.4 L 692.6 639.7 L 699.1 639.3 L 705.6 637.2 L 712.1 633.1 L 718.6 627.1 L 725.0 619.1 L 731.5 609.0 L 738.0 596.9" type="function-graph" clip-path="url(#clipPath-1)"/>
    <circle id="point-0-outline" cx="495.0" cy="334.9" r="10" type="point"/>
  </defs>
  <use fill="#ccc" stroke-width="20" stroke="white" xlink:href="#rectangle-0-outline"/>
  <use id="rectangle-0" fill="lightgray" stroke-width="2" stroke="None" stroke-dasharray="none" xlink:href="#rectangle-0-outline"/>
  <use fill="none" stroke-width="20" stroke="white" xlink:href="#graph-1-outline"/>
  <use id="graph-1" fill="none" stroke-width="2" stroke="black" stroke-dasharray="none" xlink:href="#graph-1-outline"/>
  <use fill="#ccc" stroke-width="20" stroke="white" xlink:href="#point-0-outline"/>
  <use id="point-0" fill="lightgray" stroke-width="2" stroke="black" stroke-dasharray="none" xlink:href="#point-0-outline"/>
</svg>
