<svg xmlns="http://www.w3.org/2000/svg" xmlns:xlink="http://www.w3.org/1999/xlink" id="diagram" width="310" height="310">
  <defs>
    <clipPath id="clipPath-0">
      <rect x="5.0" y="5.0" width="300.0" height="300.0"/>
    </clipPath>
    <clipPath id="clipPath-1">
      <rect x="5.0" y="5.0" width="300.0" height="300.0"/>
    </clipPath>
  </defs>
  <g id="grid" stroke="#ccc" stroke-width="1">
    <line id="line-0" x1="5.0" y1="305.0" x2="5.0" y2="5.0" type="vertical grid"/>
    <line id="line-1" x1="35.0" y1="305.0" x2="35.0" y2="5.0" type="vertical grid"/>
    <line id="line-2" x1="65.0" y1="305.0" x2="65.0" y2="5.0" type="vertical grid"/>
    <line id="line-3" x1="95.0" y1="305.0" x2="95.0" y2="5.0" type="vertical grid"/>
    <line id="line-4" x1="125.0" y1="305.0" x2="125.0" y2="5.0" type="vertical grid"/>
    <line id="line-5" x1="155.0" y1="305.0" x2="155.0" y2="5.0" type="vertical grid"/>
    <line id="line-6" x1="185.0" y1="305.0" x2="185.0" y2="5.0" type="vertical grid"/>
    <line id="line-7" x1="215.0" y1="305.0" x2="215.0" y2="5.0" type="vertical grid"/>
    <line id="line-8" x1="245.0" y1="305.0" x2="245.0" y2="5.0" type="vertical grid"/>
    <line id="line-9" x1="275.0" y1="305.0" x2="275.0" y2="5.0" type="vertical grid"/>
    <line id="line-10" x1="305.0" y1="305.0" x2="305.0" y2="5.0" type="vertical grid"/>
    <line id="line-11" x1="5.0" y1="305.0" x2="305.0" y2="305.0" type="horizontal grid"/>
    <line id="line-12" x1="5.0" y1="275.0" x2="305.0" y2="275.0" type="horizontal grid"/>
    <line id="line-13" x1="5.0" y1="245.0" x2="305.0" y2="245.0" type="horizontal grid"/>
    <line id="line-14" x1="5.0" y1="215.0" x2="305.0" y2="215.0" type="horizontal grid"/>
    <line id="line-15" x1="5.0" y1="185.0" x2="305.0" y2="185.0" type="horizontal grid"/>
    <line id="line-16" x1="5.0" y1="155.0" x2="305.0" y2="155.0" type="horizontal grid"/>
    <line id="line-17" x1="5.0" y1="125.0" x2="305.0" y2="125.0" type="horizontal grid"/>
    <line id="line-18" x1="5.0" y1="95.0" x2="305.0" y2="95.0" type="horizontal grid"/>
    <line id="line-19" x1="5.0" y1="65.0" x2="305.0" y2="65.0" type="horizontal grid"/>
    <line id="line-20" x1="5.0" y1="35.0" x2="305.0" y2="35.0" type="horizontal grid"/>
    <line id="line-21" x1="5.0" y1="5.0" x2="305.0" y2="5.0" type="horizontal grid"/>
  </g>
  <path id="path-0" d="M 35.0 155.0 L 155.0 155.0 L 155.0 65.0 L 35.0 65.0 Z" stroke="none" stroke-width="2" fill="green" type="rectangle"/>
  <path id="path-1" d="M 277.0 227.7 Q 282.0 219.0 273.3 214.0 L 186.7 164.0 Q 178.0 159.0 173.0 167.7 L 153.0 202.3 Q 148.0 211.0 156.7 216.0 L 243.3 266.0 Q 252.0 271.0 257.0 262.3 Z" stroke="blue" stroke-width="5" fill="white" type="rectangle"/>
</svg>
