<svg xmlns="http://www.w3.org/2000/svg" id="diagram" width="310" height="310">
  <defs>
    <clipPath id="clipPath-0">
      <rect x="5.0" y="5.0" width="300.0" height="300.0"/>
    </clipPath>
    <clipPath id="clipPath-1">
      <rect x="5.0" y="5.0" width="300.0" height="300.0"/>
    </clipPath>
  </defs>
  <g id="grid-axes">
    <g id="grid" stroke="#ccc" stroke-width="1">
      <line id="line-0" x1="5.0" y1="305.0" x2="5.0" y2="5.0"/>
      <line id="line-1" x1="35.0" y1="305.0" x2="35.0" y2="5.0"/>
      <line id="line-2" x1="65.0" y1="305.0" x2="65.0" y2="5.0"/>
      <line id="line-3" x1="95.0" y1="305.0" x2="95.0" y2="5.0"/>
      <line id="line-4" x1="125.0" y1="305.0" x2="125.0" y2="5.0"/>
      <line id="line-5" x1="155.0" y1="305.0" x2="155.0" y2="5.0"/>
      <line id="line-6" x1="185.0" y1="305.0" x2="185.0" y2="5.0"/>
      <line id="line-7" x1="215.0" y1="305.0" x2="215.0" y2="5.0"/>
      <line id="line-8" x1="245.0" y1="305.0" x2="245.0" y2="5.0"/>
      <line id="line-9" x1="275.0" y1="305.0" x2="275.0" y2="5.0"/>
      <line id="line-10" x1="305.0" y1="305.0" x2="305.0" y2="5.0"/>
      <line id="line-11" x1="5.0" y1="305.0" x2="305.0" y2="305.0"/>
      <line id="line-12" x1="5.0" y1="275.0" x2="305.0" y2="275.0"/>
      <line id="line-13" x1="5.0" y1="245.0" x2="305.0" y2="245.0"/>
      <line id="line-14" x1="5.0" y1="215.0" x2="305.0" y2="215.0"/>
      <line id="line-15" x1="5.0" y1="185.0" x2="305.0" y2="185.0"/>
      <line id="line-16" x1="5.0" y1="155.0" x2="305.0" y2="155.0"/>
      <line id="line-17" x1="5.0" y1="125.0" x2="305.0" y2="125.0"/>
      <line id="line-18" x1="5.0" y1="95.0" x2="305.0" y2="95.0"/>
      <line id="line-19" x1="5.0" y1="65.0" x2="305.0" y2="65.0"/>
      <line id="line-20" x1="5.0" y1="35.0" x2="305.0" y2="35.0"/>
      <line id="line-21" x1="5.0" y1="5.0" x2="305.0" y2="5.0"/>
    </g>
    <g id="axes" stroke="black" stroke-width="2">
      <line id="line-22" x1="5.0" y1="305.0" x2="305.0" y2="305.0" stroke="black" stroke-width="2"/>
      <line id="line-23" x1="5.0" y1="305.0" x2="5.0" y2="5.0" stroke="black" stroke-width="2"/>
      <g id="g-0"/>
      <g id="g-1"/>
    </g>
  </g>
  <path id="path-0" d="M 35.0 125.0 L 65.0 125.0 L 65.0 65.0 L 35.0 65.0 Z" stroke="black" stroke-width="2" fill="green"/>
  <path id="path-1" d="M 273.5 236.2 L 252.3 215.0 L 209.9 257.4 L 231.1 278.6 Z" stroke="black" stroke-width="2" fill="blue"/>
  <circle id="circle-0" cx="125.0" cy="215.0" r="4" stroke="black" stroke-width="2" fill="red"/>
  <path id="path-2" d="M 185.0 125.0 L 275.0 125.0 L 275.0 35.0 L 185.0 35.0 Z" stroke="black" stroke-width="2" fill="red"/>
</svg>
