<svg xmlns="http://www.w3.org/2000/svg" id="diagram" width="310" height="310">
  <defs>
    <clipPath id="clipPath-0">
      <rect x="5.0" y="5.0" width="300.0" height="300.0"/>
    </clipPath>
    <clipPath id="clipPath-1">
      <rect x="5.0" y="5.0" width="300.0" height="300.0"/>
    </clipPath>
    <marker id="arrow-head-end-2_None_24_60-blue" markerWidth="9.0" markerHeight="8.0" markerUnits="userSpaceOnUse" orient="auto-start-reverse" refX="6.5" refY="4.0">
      <path d="M 9.0 4.0L 0.0 8.0L 1.7 5.0L 1.7 3.0L 0.0 0.0Z" fill="blue" stroke="none"/>
    </marker>
    <marker id="arrow-head-end-2_None_24_60-blue-outline" markerWidth="13.0" markerHeight="12.0" markerUnits="userSpaceOnUse" orient="auto-start-reverse" refX="8.5" refY="6.0">
      <path d="M 11.8 7.8 L 2.8 11.8 A 2 2 0 0 1 0.0 10.0 L 0.0 2.0 A 2 2 0 0 1 2.8 0.2 L 11.8 4.2 A 2 2 0 0 1 11.8 7.8 Z" fill="white" stroke="none"/>
    </marker>
  </defs>
  <g id="grid-axes">
    <g id="grid" stroke="#ccc" stroke-width="1">
      <line id="line-0" x1="5.0" y1="305.0" x2="5.0" y2="5.0"/>
      <line id="line-1" x1="42.5" y1="305.0" x2="42.5" y2="5.0"/>
      <line id="line-2" x1="80.0" y1="305.0" x2="80.0" y2="5.0"/>
      <line id="line-3" x1="117.5" y1="305.0" x2="117.5" y2="5.0"/>
      <line id="line-4" x1="155.0" y1="305.0" x2="155.0" y2="5.0"/>
      <line id="line-5" x1="192.5" y1="305.0" x2="192.5" y2="5.0"/>
      <line id="line-6" x1="230.0" y1="305.0" x2="230.0" y2="5.0"/>
      <line id="line-7" x1="267.5" y1="305.0" x2="267.5" y2="5.0"/>
      <line id="line-8" x1="305.0" y1="305.0" x2="305.0" y2="5.0"/>
      <line id="line-9" x1="5.0" y1="305.0" x2="305.0" y2="305.0"/>
      <line id="line-10" x1="5.0" y1="267.5" x2="305.0" y2="267.5"/>
      <line id="line-11" x1="5.0" y1="230.0" x2="305.0" y2="230.0"/>
      <line id="line-12" x1="5.0" y1="192.5" x2="305.0" y2="192.5"/>
      <line id="line-13" x1="5.0" y1="155.0" x2="305.0" y2="155.0"/>
      <line id="line-14" x1="5.0" y1="117.5" x2="305.0" y2="117.5"/>
      <line id="line-15" x1="5.0" y1="80.0" x2="305.0" y2="80.0"/>
      <line id="line-16" x1="5.0" y1="42.5" x2="305.0" y2="42.5"/>
      <line id="line-17" x1="5.0" y1="5.0" x2="305.0" y2="5.0"/>
    </g>
    <g id="axes" stroke="black" stroke-width="2">
      <line id="line-18" x1="5.0" y1="155.0" x2="305.0" y2="155.0" stroke="black" stroke-width="2"/>
      <line id="line-19" x1="155.0" y1="305.0" x2="155.0" y2="5.0" stroke="black" stroke-width="2"/>
    </g>
  </g>
  <path id="path-0" d="M 267.5 155.0 L 267.3 147.9 L 266.6 140.9 L 265.5 133.9 L 264.0 127.0 L 262.0 120.2 L 259.6 113.6 L 256.8 107.1 L 253.6 100.8 L 250.0 94.7 L 246.0 88.9 L 241.7 83.3 L 237.0 78.0 L 232.0 73.0 L 226.7 68.3 L 221.1 64.0 L 215.3 60.0 L 209.2 56.4 L 202.9 53.2 L 196.4 50.4 L 189.8 48.0 L 183.0 46.0 L 176.1 44.5 L 169.1 43.4 L 162.1 42.7 L 155.0 42.5 L 147.9 42.7 L 140.9 43.4 L 133.9 44.5 L 127.0 46.0 L 120.2 48.0 L 113.6 50.4 L 107.1 53.2 L 100.8 56.4 L 94.7 60.0 L 88.9 64.0 L 83.3 68.3 L 78.0 73.0 L 73.0 78.0 L 68.3 83.3 L 64.0 88.9 L 60.0 94.7 L 56.4 100.8 L 53.2 107.1 L 50.4 113.6 L 48.0 120.2 L 46.0 127.0 L 44.5 133.9 L 43.4 140.9 L 42.7 147.9 L 42.5 155.0 L 42.7 162.1 L 43.4 169.1 L 44.5 176.1 L 46.0 183.0 L 48.0 189.8 L 50.4 196.4 L 53.2 202.9 L 56.4 209.2 L 60.0 215.3 L 64.0 221.1 L 68.3 226.7 L 73.0 232.0 L 78.0 237.0 L 83.3 241.7 L 88.9 246.0 L 94.7 250.0 L 100.8 253.6 L 107.1 256.8 L 113.6 259.6 L 120.2 262.0 L 127.0 264.0 L 133.9 265.5 L 140.9 266.6 L 147.9 267.3 L 155.0 267.5 L 162.1 267.3 L 169.1 266.6 L 176.1 265.5 L 183.0 264.0 L 189.8 262.0 L 196.4 259.6 L 202.9 256.8 L 209.2 253.6 L 215.3 250.0 L 221.1 246.0 L 226.7 241.7 L 232.0 237.0 L 237.0 232.0 L 241.7 226.7 L 246.0 221.1 L 250.0 215.3 L 253.6 209.2 L 256.8 202.9 L 259.6 196.4 L 262.0 189.8 L 264.0 183.0 L 265.5 176.1 L 266.6 169.1 L 267.3 162.1 L 267.5 155.0" stroke="magenta" stroke-width="2" fill="none" clip-path="url(#clipPath-1)"/>
  <g id="g-0">
    <line id="line-20" x1="267.5" y1="155.0" x2="267.5" y2="110.0" stroke="blue" stroke-width="2" fill="none" marker-end="url(#arrow-head-end-2_None_24_60-blue)"/>
    <line id="line-21" x1="252.4" y1="98.8" x2="274.9" y2="59.8" stroke="blue" stroke-width="2" fill="none" marker-end="url(#arrow-head-end-2_None_24_60-blue)"/>
    <line id="line-22" x1="211.2" y1="57.6" x2="250.2" y2="35.1" stroke="blue" stroke-width="2" fill="none" marker-end="url(#arrow-head-end-2_None_24_60-blue)"/>
    <line id="line-23" x1="155.0" y1="42.5" x2="200.0" y2="42.5" stroke="blue" stroke-width="2" fill="none" marker-end="url(#arrow-head-end-2_None_24_60-blue)"/>
    <line id="line-24" x1="98.8" y1="57.6" x2="137.7" y2="80.1" stroke="blue" stroke-width="2" fill="none" marker-end="url(#arrow-head-end-2_None_24_60-blue)"/>
    <line id="line-25" x1="57.6" y1="98.8" x2="80.1" y2="137.7" stroke="blue" stroke-width="2" fill="none" marker-end="url(#arrow-head-end-2_None_24_60-blue)"/>
    <line id="line-26" x1="42.5" y1="155.0" x2="42.5" y2="200.0" stroke="blue" stroke-width="2" fill="none" marker-end="url(#arrow-head-end-2_None_24_60-blue)"/>
    <line id="line-27" x1="57.6" y1="211.2" x2="35.1" y2="250.2" stroke="blue" stroke-width="2" fill="none" marker-end="url(#arrow-head-end-2_None_24_60-blue)"/>
    <line id="line-28" x1="98.8" y1="252.4" x2="59.8" y2="274.9" stroke="blue" stroke-width="2" fill="none" marker-end="url(#arrow-head-end-2_None_24_60-blue)"/>
    <line id="line-29" x1="155.0" y1="267.5" x2="110.0" y2="267.5" stroke="blue" stroke-width="2" fill="none" marker-end="url(#arrow-head-end-2_None_24_60-blue)"/>
    <line id="line-30" x1="211.2" y1="252.4" x2="172.3" y2="229.9" stroke="blue" stroke-width="2" fill="none" marker-end="url(#arrow-head-end-2_None_24_60-blue)"/>
    <line id="line-31" x1="252.4" y1="211.2" x2="229.9" y2="172.3" stroke="blue" stroke-width="2" fill="none" marker-end="url(#arrow-head-end-2_None_24_60-blue)"/>
    <line id="line-32" x1="267.5" y1="155.0" x2="267.5" y2="110.0" stroke="blue" stroke-width="2" fill="none" marker-end="url(#arrow-head-end-2_None_24_60-blue)"/>
  </g>
</svg>
