<svg xmlns="http://www.w3.org/2000/svg" id="prefigure-sample-LCR-circuit-figure" width="310" height="210" viewBox="0 0 310 210">
  <defs>
    <clipPath id="prefigure-sample-LCR-circuit-__clipPath-0">
      <rect x="5.0" y="5.0" width="300.0" height="200.0"/>
    </clipPath>
    <clipPath id="prefigure-sample-LCR-circuit-__clipPath-1">
      <rect x="5.0" y="5.0" width="300.0" height="200.0"/>
    </clipPath>
  </defs>
  <path id="prefigure-sample-LCR-circuit-__path-0" d="M 35.0 182.8 L 35.0 27.2 L 100.0 27.2 L 100.5 27.2 L 101.0 25.7 L 101.6 24.1 L 102.4 22.7 L 103.2 21.3 L 104.2 20.2 L 105.2 19.1 L 106.4 18.3 L 107.5 17.7 L 108.8 17.3 L 110.0 17.2 L 111.2 17.3 L 112.5 17.7 L 113.6 18.3 L 114.8 19.1 L 115.8 20.2 L 116.8 21.3 L 117.6 22.7 L 118.4 24.1 L 119.0 25.7 L 119.5 27.2 L 119.9 28.8 L 120.2 30.3 L 120.4 31.8 L 120.4 33.1 L 120.4 34.3 L 120.2 35.3 L 120.0 36.1 L 119.7 36.7 L 119.4 37.1 L 119.1 37.2 L 118.8 37.1 L 118.5 36.7 L 118.2 36.1 L 118.0 35.3 L 117.8 34.3 L 117.8 33.1 L 117.8 31.8 L 118.0 30.3 L 118.2 28.8 L 118.6 27.2 L 119.2 25.7 L 119.8 24.1 L 120.5 22.7 L 121.4 21.3 L 122.4 20.2 L 123.4 19.1 L 124.5 18.3 L 125.7 17.7 L 126.9 17.3 L 128.2 17.2 L 129.4 17.3 L 130.6 17.7 L 131.8 18.3 L 132.9 19.1 L 134.0 20.2 L 135.0 21.3 L 135.8 22.7 L 136.6 24.1 L 137.2 25.7 L 137.7 27.2 L 138.1 28.8 L 138.4 30.3 L 138.5 31.8 L 138.6 33.1 L 138.5 34.3 L 138.4 35.3 L 138.2 36.1 L 137.9 36.7 L 137.6 37.1 L 137.3 37.2 L 136.9 37.1 L 136.6 36.7 L 136.4 36.1 L 136.2 35.3 L 136.0 34.3 L 136.0 33.1 L 136.0 31.8 L 136.2 30.3 L 136.4 28.8 L 136.8 27.2 L 137.3 25.7 L 138.0 24.1 L 138.7 22.7 L 139.6 21.3 L 140.6 20.2 L 141.6 19.1 L 142.7 18.3 L 143.9 17.7 L 145.1 17.3 L 146.4 17.2 L 147.6 17.3 L 148.8 17.7 L 150.0 18.3 L 151.1 19.1 L 152.2 20.2 L 153.1 21.3 L 154.0 22.7 L 154.8 24.1 L 155.4 25.7 L 155.9 27.2 L 156.3 28.8 L 156.6 30.3 L 156.7 31.8 L 156.8 33.1 L 156.7 34.3 L 156.6 35.3 L 156.4 36.1 L 156.1 36.7 L 155.8 37.1 L 155.5 37.2 L 155.1 37.1 L 154.8 36.7 L 154.5 36.1 L 154.3 35.3 L 154.2 34.3 L 154.1 33.1 L 154.2 31.8 L 154.3 30.3 L 154.6 28.8 L 155.0 27.2 L 155.5 25.7 L 156.2 24.1 L 156.9 22.7 L 157.8 21.3 L 158.7 20.2 L 159.8 19.1 L 160.9 18.3 L 162.1 17.7 L 163.3 17.3 L 164.5 17.2 L 165.8 17.3 L 167.0 17.7 L 168.2 18.3 L 169.3 19.1 L 170.4 20.2 L 171.3 21.3 L 172.2 22.7 L 172.9 24.1 L 173.6 25.7 L 174.1 27.2 L 174.5 28.8 L 174.8 30.3 L 174.9 31.8 L 175.0 33.1 L 174.9 34.3 L 174.8 35.3 L 174.5 36.1 L 174.3 36.7 L 174.0 37.1 L 173.6 37.2 L 173.3 37.1 L 173.0 36.7 L 172.7 36.1 L 172.5 35.3 L 172.4 34.3 L 172.3 33.1 L 172.4 31.8 L 172.5 30.3 L 172.8 28.8 L 173.2 27.2 L 173.7 25.7 L 174.3 24.1 L 175.1 22.7 L 176.0 21.3 L 176.9 20.2 L 178.0 19.1 L 179.1 18.3 L 180.3 17.7 L 181.5 17.3 L 182.7 17.2 L 184.0 17.3 L 185.2 17.7 L 186.4 18.3 L 187.5 19.1 L 188.5 20.2 L 189.5 21.3 L 190.4 22.7 L 191.1 24.1 L 191.8 25.7 L 192.3 27.2 L 192.7 28.8 L 192.9 30.3 L 193.1 31.8 L 193.1 33.1 L 193.1 34.3 L 192.9 35.3 L 192.7 36.1 L 192.5 36.7 L 192.1 37.1 L 191.8 37.2 L 191.5 37.1 L 191.2 36.7 L 190.9 36.1 L 190.7 35.3 L 190.6 34.3 L 190.5 33.1 L 190.5 31.8 L 190.7 30.3 L 191.0 28.8 L 191.4 27.2 L 191.9 25.7 L 192.5 24.1 L 193.3 22.7 L 194.1 21.3 L 195.1 20.2 L 196.2 19.1 L 197.3 18.3 L 198.5 17.7 L 199.7 17.3 L 200.9 17.2 L 202.1 17.3 L 203.4 17.7 L 204.5 18.3 L 205.7 19.1 L 206.7 20.2 L 207.7 21.3 L 208.5 22.7 L 209.3 24.1 L 209.9 25.7 L 209.9 27.2 L 275.0 27.2 L 275.0 99.0 M 260.0 99.0 L 290.0 99.0 M 260.0 111.0 L 290.0 111.0 M 275.0 111.0 L 275.0 182.8 L 205.0 182.8 L 200.0 192.8 L 195.0 182.8 L 190.0 172.8 L 185.0 182.8 L 180.0 192.8 L 175.0 182.8 L 170.0 172.8 L 165.0 182.8 L 160.0 192.8 L 155.0 182.8 L 150.0 172.8 L 145.0 182.8 L 140.0 192.8 L 135.0 182.8 L 130.0 172.8 L 125.0 182.8 L 120.0 192.8 L 115.0 182.8 L 110.0 172.8 L 105.0 182.8 L 105.0 182.8 L 35.0 182.8" stroke="black" stroke-width="2" fill="none" clip-path="url(#prefigure-sample-LCR-circuit-__clipPath-1)"/>
  <circle id="prefigure-sample-LCR-circuit-__circle-0" cx="35.0" cy="105.0" r="20" stroke="black" stroke-width="2" fill="white"/>
  <g id="prefigure-sample-LCR-circuit-__label-0" transform="translate(26.0,86.0) translate(-14.1,-12.1)">
    <g id="prefigure-sample-LCR-circuit-__g-0">
      <svg xmlns:xlink="http://www.w3.org/1999/xlink" style="vertical-align: -1.504px" width="14.080px" height="12.056px" role="img" focusable="false" viewBox="0 -583 778 666" x="0.0" y="0.0">
        <defs>
          <path id="prefigure-sample-LCR-circuit-MJX-2-NCM-N-2B" d="M698 274L413 274L413 559C413 575 405 583 389 583C373 583 365 575 365 559L365 274L80 274C64 274 56 266 56 250C56 234 64 226 80 226L365 226L365-59C365-75 373-83 389-83C405-83 413-75 413-59L413 226L698 226C714 226 722 234 722 250C722 263 711 274 698 274Z"/>
        </defs>
        <g stroke="currentColor" fill="currentColor" stroke-width="0" transform="scale(1,-1)">
          <g data-mml-node="math">
            <g data-mml-node="mo" data-semantic-type="operator" data-semantic-role="addition" data-semantic-annotation="nemeth:number;depth:1" data-semantic-id="0" data-semantic-attributes="latex:+" data-semantic-speech="plus">
              <use data-c="2B" xlink:href="#prefigure-sample-LCR-circuit-MJX-2-NCM-N-2B"/>
            </g>
          </g>
        </g>
      </svg>
    </g>
  </g>
  <g id="prefigure-sample-LCR-circuit-__label-1" transform="translate(26.0,124.0) translate(-14.1,-0.0)">
    <g id="prefigure-sample-LCR-circuit-__g-1">
      <svg xmlns:xlink="http://www.w3.org/1999/xlink" style="vertical-align: -1.504px" width="14.080px" height="12.056px" role="img" focusable="false" viewBox="0 -583 778 666" x="0.0" y="0.0">
        <defs>
          <path id="prefigure-sample-LCR-circuit-MJX-3-NCM-N-2212" d="M698 270L80 270C64 270 56 263 56 250C56 237 64 230 80 230L698 230C714 230 722 237 722 250C722 262 710 270 698 270Z"/>
        </defs>
        <g stroke="currentColor" fill="currentColor" stroke-width="0" transform="scale(1,-1)">
          <g data-mml-node="math">
            <g data-mml-node="mo" data-semantic-type="operator" data-semantic-role="subtraction" data-semantic-annotation="nemeth:number;depth:1" data-semantic-id="0" data-semantic-attributes="latex:-" data-semantic-speech="minus">
              <use data-c="2212" xlink:href="#prefigure-sample-LCR-circuit-MJX-3-NCM-N-2212"/>
            </g>
          </g>
        </g>
      </svg>
    </g>
  </g>
  <g id="prefigure-sample-LCR-circuit-__label-2" transform="translate(256.0,105.0) translate(-13.8,-6.6)">
    <g id="prefigure-sample-LCR-circuit-__g-2">
      <svg xmlns:xlink="http://www.w3.org/1999/xlink" style="vertical-align: -0.400px" width="13.752px" height="13.160px" role="img" focusable="false" viewBox="0 -705 760 727" x="0.0" y="0.0">
        <defs>
          <path id="prefigure-sample-LCR-circuit-MJX-4-NCM-I-1D436" d="M148 218C148 346 204 476 267 548C318 607 406 666 505 666C609 666 660 587 660 479C660 470 657 438 657 429C657 420 663 415 676 415C681 415 685 416 688 417C693 424 696 431 698 438L760 691C760 700 755 705 745 705C741 705 735 701 727 692L662 619C623 676 568 705 497 705C442 705 388 692 333 667C222 615 141 533 89 421C63 366 50 310 50 253C50 173 75 108 126 56C177 4 242-22 322-22C401-22 473 7 538 64C565 87 588 115 607 146C634 191 648 222 648 241C648 250 643 255 632 255C623 255 618 251 616 242C595 177 562 125 517 88C460 41 400 17 338 17C218 17 148 98 148 218Z"/>
        </defs>
        <g stroke="currentColor" fill="currentColor" stroke-width="0" transform="scale(1,-1)">
          <g data-mml-node="math">
            <g data-mml-node="mi" data-semantic-type="identifier" data-semantic-role="latinletter" data-semantic-font="italic" data-semantic-annotation="clearspeak:simple;nemeth:number;depth:1" data-semantic-id="0" data-semantic-attributes="latex:C" data-semantic-speech="upper C">
              <use data-c="1D436" xlink:href="#prefigure-sample-LCR-circuit-MJX-4-NCM-I-1D436"/>
            </g>
          </g>
        </g>
      </svg>
    </g>
  </g>
  <g id="prefigure-sample-LCR-circuit-__label-3" transform="translate(155.0,163.8) translate(-6.9,-12.8)">
    <g id="prefigure-sample-LCR-circuit-__g-3">
      <svg xmlns:xlink="http://www.w3.org/1999/xlink" style="vertical-align: -0.400px" width="13.736px" height="12.760px" role="img" focusable="false" viewBox="0 -683 759 705" x="0.0" y="0.0">
        <defs>
          <path id="prefigure-sample-LCR-circuit-MJX-5-NCM-I-1D445" d="M739 531C739 582 713 621 662 649C621 672 572 683 517 683L235 683C212 683 202 682 202 659C202 652 205 647 211 646C221 645 229 644 234 644C264 643 281 641 286 640C291 639 294 636 294 631C294 629 293 623 290 613L158 82C153 60 143 46 128 41C121 39 103 38 72 38C50 38 41 37 41 15C41 4 47-1 59 0L183 3L309 0C325-1 333 8 333 23C333 33 322 38 301 38C261 38 241 43 241 52C241 52 242 54 244 68L308 327L423 327C492 327 527 298 527 241C527 232 522 210 513 174C502 132 497 104 497 89C497 13 556-22 632-22C660-22 687-9 714 16C741 41 755 68 755 96C755 106 750 111 739 111C732 111 726 106 723 95C712 64 698 41 682 28C666 15 651 8 636 8C613 8 601 27 601 64C601 88 604 125 611 176C614 197 615 212 615 223C615 276 587 315 531 339C625 362 739 429 739 531M609 616C629 603 639 581 639 550C639 530 635 507 626 480C599 398 531 357 422 357L316 357L379 610C384 631 392 642 403 643C408 644 428 644 463 644C528 644 566 642 609 616Z"/>
        </defs>
        <g stroke="currentColor" fill="currentColor" stroke-width="0" transform="scale(1,-1)">
          <g data-mml-node="math">
            <g data-mml-node="mi" data-semantic-type="identifier" data-semantic-role="latinletter" data-semantic-font="italic" data-semantic-annotation="clearspeak:simple;nemeth:number;depth:1" data-semantic-id="0" data-semantic-attributes="latex:R" data-semantic-speech="upper R">
              <use data-c="1D445" xlink:href="#prefigure-sample-LCR-circuit-MJX-5-NCM-I-1D445"/>
            </g>
          </g>
        </g>
      </svg>
    </g>
  </g>
  <g id="prefigure-sample-LCR-circuit-__label-4" transform="translate(155.0,46.2) translate(-6.2,-0.0)">
    <g id="prefigure-sample-LCR-circuit-__g-4">
      <svg xmlns:xlink="http://www.w3.org/1999/xlink" style="vertical-align: 0.000px" width="12.328px" height="12.384px" role="img" focusable="false" viewBox="0 -684 681 684" x="0.0" y="0.0">
        <defs>
          <path id="prefigure-sample-LCR-circuit-MJX-6-NCM-I-1D43F" d="M520 667C520 678 513 683 500 683L354 680L223 683C208 684 200 676 200 659C200 652 203 647 209 646C218 645 226 644 231 644C262 643 279 641 284 640C289 639 292 636 292 631C292 629 291 623 288 613L156 82C150 60 140 47 125 42C119 40 101 39 70 39C49 39 39 31 39 15C39 5 49 0 70 0L527 0C552 0 554 0 561 19L639 233C642 240 643 245 643 248C643 258 638 263 627 263C617 263 612 254 607 240C588 191 570 154 555 131C518 75 455 39 363 39L270 39C259 39 252 39 249 40C242 40 239 42 239 45C239 47 241 54 244 67L377 601C383 624 396 637 415 642C421 643 442 644 478 644C506 644 520 644 520 667Z"/>
        </defs>
        <g stroke="currentColor" fill="currentColor" stroke-width="0" transform="scale(1,-1)">
          <g data-mml-node="math">
            <g data-mml-node="mi" data-semantic-type="identifier" data-semantic-role="latinletter" data-semantic-font="italic" data-semantic-annotation="clearspeak:simple;nemeth:number;depth:1" data-semantic-id="0" data-semantic-attributes="latex:L" data-semantic-speech="upper L">
              <use data-c="1D43F" xlink:href="#prefigure-sample-LCR-circuit-MJX-6-NCM-I-1D43F"/>
            </g>
          </g>
        </g>
      </svg>
    </g>
  </g>
</svg>
