<svg xmlns="http://www.w3.org/2000/svg" xmlns:xlink="http://www.w3.org/1999/xlink" id="diagram" width="310" height="210">
  <defs>
    <clipPath id="clipPath-0">
      <rect x="5.0" y="5.0" width="300.0" height="200.0"/>
    </clipPath>
    <clipPath id="clipPath-1">
      <rect x="5.0" y="5.0" width="300.0" height="200.0"/>
    </clipPath>
    <marker id="arrow-head-end-20_None_24_60" markerWidth="89.8" markerHeight="80.0" markerUnits="userSpaceOnUse" orient="auto-start-reverse" refX="65.4" refY="40.0">
      <path d="M 89.8 40.0L 0.0 80.0L 17.3 50.0L 17.3 30.0L 0.0 0.0Z" fill="context-stroke" stroke="context-none"/>
    </marker>
    <marker id="arrow-head-end-20_None_24_60-outline" markerWidth="93.8" markerHeight="84.0" markerUnits="userSpaceOnUse" orient="auto-start-reverse" refX="67.4" refY="42.0">
      <path d="M 92.7 43.8 L 2.8 83.8 A 2 2 0 0 1 0.0 82.0 L 0.0 2.0 A 2 2 0 0 1 2.8 0.2 L 92.7 40.2 A 2 2 0 0 1 92.7 43.8 Z" fill="context-stroke" stroke="context-none"/>
    </marker>
  </defs>
  <line id="line-0" x1="55.0" y1="55.0" x2="255.0" y2="55.0" stroke="black" stroke-width="20" fill="none" type="line" marker-end="url(#arrow-head-end-20_None_24_60)"/>
  <path id="path-0" d="M 255.0 155.0 M 279.5 155.0 L 189.6 115.0 L 206.9 145.0 L 206.9 165.0 L 189.6 195.0 Z" stroke="black" stroke-width="2" fill="none" type="path" clip-path="url(#clipPath-1)"/>
  <path id="path-1" d="M 55.0 165.0 L 255.0 165.0 L 255.0 145.0 L 55.0 145.0 Z" stroke="black" stroke-width="2" fill="none" type="rectangle"/>
</svg>
