<svg xmlns="http://www.w3.org/2000/svg" id="diagram" width="260" height="280">
  <defs>
    <clipPath id="clipPath-0">
      <rect x="5.0" y="5.0" width="250.0" height="270.0"/>
    </clipPath>
    <clipPath id="clipPath-1">
      <rect x="5.0" y="5.0" width="250.0" height="270.0"/>
    </clipPath>
  </defs>
  <path id="path-0" d="M 67.5 275.0 L 112.5 275.0 L 112.5 150.0 L 67.5 150.0 Z" stroke="none" stroke-width="2" fill="skyblue"/>
  <path id="path-1" d="M 112.5 275.0 L 192.5 275.0 L 192.5 150.0 L 112.5 150.0 Z" stroke="none" stroke-width="2" fill="springgreen"/>
  <path id="path-2" d="M 7.5 105.0 L 67.5 150.0 L 112.5 90.0 L 52.5 45.0 Z" stroke="black" stroke-width="2" fill="skyblue"/>
  <path id="path-3" d="M 112.5 90.0 L 192.5 150.0 L 252.5 70.0 L 172.5 10.0 Z" stroke="black" stroke-width="2" fill="springgreen"/>
  <path id="path-4" d="M 67.5 275.0 L 192.5 275.0 L 192.5 150.0 L 67.5 150.0 Z" stroke="black" stroke-width="2" fill="none"/>
  <line id="line-0" x1="112.5" y1="90.0" x2="112.5" y2="275.0" stroke="black" stroke-width="2" stroke-dasharray="8 8" fill="none"/>
  <g id="triangle">
    <path id="triangle" d="M 67.5 150.0 L 192.5 150.0 L 112.5 90.0 Z" stroke="black" stroke-width="2" fill="none" clip-path="url(#clipPath-1)"/>
  </g>
</svg>
