<svg xmlns="http://www.w3.org/2000/svg" xmlns:xlink="http://www.w3.org/1999/xlink" id="diagram" width="310" height="310">
  <defs>
    <clipPath id="clipPath-0">
      <rect x="5.0" y="5.0" width="300.0" height="300.0"/>
    </clipPath>
    <clipPath id="clipPath-1">
      <rect x="5.0" y="5.0" width="300.0" height="300.0"/>
    </clipPath>
  </defs>
  <g id="grid-axes">
    <g id="grid" stroke="#ccc" stroke-width="1">
      <line id="line-0" x1="5.0" y1="305.0" x2="5.0" y2="5.0" type="vertical grid"/>
      <line id="line-1" x1="35.0" y1="305.0" x2="35.0" y2="5.0" type="vertical grid"/>
      <line id="line-2" x1="65.0" y1="305.0" x2="65.0" y2="5.0" type="vertical grid"/>
      <line id="line-3" x1="95.0" y1="305.0" x2="95.0" y2="5.0" type="vertical grid"/>
      <line id="line-4" x1="125.0" y1="305.0" x2="125.0" y2="5.0" type="vertical grid"/>
      <line id="line-5" x1="155.0" y1="305.0" x2="155.0" y2="5.0" type="vertical grid"/>
      <line id="line-6" x1="185.0" y1="305.0" x2="185.0" y2="5.0" type="vertical grid"/>
      <line id="line-7" x1="215.0" y1="305.0" x2="215.0" y2="5.0" type="vertical grid"/>
      <line id="line-8" x1="245.0" y1="305.0" x2="245.0" y2="5.0" type="vertical grid"/>
      <line id="line-9" x1="275.0" y1="305.0" x2="275.0" y2="5.0" type="vertical grid"/>
      <line id="line-10" x1="305.0" y1="305.0" x2="305.0" y2="5.0" type="vertical grid"/>
      <line id="line-11" x1="5.0" y1="305.0" x2="305.0" y2="305.0" type="horizontal grid"/>
      <line id="line-12" x1="5.0" y1="275.0" x2="305.0" y2="275.0" type="horizontal grid"/>
      <line id="line-13" x1="5.0" y1="245.0" x2="305.0" y2="245.0" type="horizontal grid"/>
      <line id="line-14" x1="5.0" y1="215.0" x2="305.0" y2="215.0" type="horizontal grid"/>
      <line id="line-15" x1="5.0" y1="185.0" x2="305.0" y2="185.0" type="horizontal grid"/>
      <line id="line-16" x1="5.0" y1="155.0" x2="305.0" y2="155.0" type="horizontal grid"/>
      <line id="line-17" x1="5.0" y1="125.0" x2="305.0" y2="125.0" type="horizontal grid"/>
      <line id="line-18" x1="5.0" y1="95.0" x2="305.0" y2="95.0" type="horizontal grid"/>
      <line id="line-19" x1="5.0" y1="65.0" x2="305.0" y2="65.0" type="horizontal grid"/>
      <line id="line-20" x1="5.0" y1="35.0" x2="305.0" y2="35.0" type="horizontal grid"/>
      <line id="line-21" x1="5.0" y1="5.0" x2="305.0" y2="5.0" type="horizontal grid"/>
    </g>
    <g id="axes" stroke="black" stroke-width="2">
      <line id="line-22" x1="5.0" y1="305.0" x2="305.0" y2="305.0" type="horizontal axis" stroke-width="2"/>
      <line id="line-23" x1="5.0" y1="305.0" x2="5.0" y2="5.0" type="vertical axis" stroke-width="2"/>
      <g type="horizontal ticks" id="g-0"/>
      <g type="vertical ticks" id="g-1"/>
    </g>
  </g>
  <g id="g-2">
    <path id="path-0-k=1" d="M 62.1 139.7 A 15.0 15.0 0 0 0 77.0 116.0" stroke="black" stroke-width="2" fill="none" type="arc"/>
    <path id="path-1-k=2" d="M 56.7 271.4 A 22.0 22.0 0 0 0 39.3 253.4" stroke="black" stroke-width="2" fill="none" type="arc"/>
    <path id="path-2-k=3" d="M 223.3 232.5 A 15.0 15.0 0 0 0 200.2 247.5" stroke="black" stroke-width="2" fill="none" type="arc"/>
    <path id="path-3-k=4" d="M 266.0 143.0 A 15.0 15.0 0 0 0 266.7 167.5" stroke="black" stroke-width="2" fill="none" type="arc"/>
    <path id="path-4-k=5" d="M 171.4 45.2 L 181.6 58.8 L 195.2 48.6" stroke="black" stroke-width="2" fill="none" type="arc"/>
  </g>
  <path id="path-5" d="M 35.0 275.0 L 65.0 125.0 L 185.0 35.0 L 275.0 155.0 L 215.0 245.0 Z" stroke="blue" stroke-width="2" fill="none" type="polygon" clip-path="url(#clipPath-1)"/>
</svg>
